<svg id="レイヤー_1" data-name="レイヤー 1" xmlns="http://www.w3.org/2000/svg" width="167.48" height="49.83" viewBox="0 0 167.48 49.83"><defs><style>.cls-1{fill:#fff;stroke:#fff;}</style></defs><title>HOME</title><path class="cls-1" d="M38.91,11.44c.51,7.34,3,36.1-7.55,36.71C26.42,48.41,25.85,39,26.93,29a30,30,0,0,1-8.93.51,64,64,0,0,1-3.77,15.55c-2,4.9-7.09,3.21-8.52,1.23-4.18-5.72-5-20.5-5-28.15,0-10.41,3-15.3,10.56-14.08,6,1,7.7,9.49,7.34,18.87A67.21,67.21,0,0,1,28,21.79a83.35,83.35,0,0,1,2.9-11.58C32.84,4.4,38.4,4.09,38.91,11.44Z" transform="translate(-0.16 -0.44)"/><path class="cls-1" d="M42.64,21.38C44.73,8.53,54,2.41,61.71,3c7.19.61,16.42,5.51,18,20.2C81.6,41,75.12,45.86,59.62,47.69,46.31,49.27,40.6,34.23,42.64,21.38Zm14.43,3.67c.41,2.4,1,6.12,6.17,4.9,2-.46,5.15-4.29,3.62-8.57s-2.6-4.9-5.66-4.28C57.58,18.32,56.66,22.4,57.07,25.05Z" transform="translate(-0.16 -0.44)"/><path class="cls-1" d="M125.86,28.31c1.12,11.53,1.28,17.75-3.36,18.36-7.75.46-4.75-14.84-7.75-15.45-4.59-.92-1.58,11.93-8.37,12.85-8.87,1.23-4.49-15.91-7.9-15.91-1.63,0-3.21,6.12-3.32,10.56C94.91,51,83.28,48.46,83.28,40.4c0-12.85.56-22.9,2.7-30.85,1.79-6.73,8.83-7.8,14.13-4.28,4.59,3,7.34,13.1,7.34,13.1s5-10.25,9.59-10.25S124.23,10.57,125.86,28.31Z" transform="translate(-0.16 -0.44)"/><path class="cls-1" d="M131.93,41c-1.58-4.49-3.56-20.45-1.58-29,1.28-5.15,2.66-6.63,7.4-8.47,5.35-2,15.2-3.62,23.1-1.78,8.92,1.78,7.34,13.87,1.58,15.7S147.18,15.62,144,24.08c0,.05-.05.05-.05.1,6.48.51,11.83-5.3,15.91-1.88,5.76,4.79,1.07,10.86-4.18,10.25a54.29,54.29,0,0,0-11.73.56c1,3.92,3.16,7.09,5.86,6.68,7-1.23,15-3.27,14.69,3.62-.2,5.15-4.74,5.4-11,6S135.61,51,131.93,41Z" transform="translate(-0.16 -0.44)"/></svg>